<svg width="25" height="24" viewBox="0 0 25 24" fill="none" xmlns="http://www.w3.org/2000/svg">
<path d="M7.50708 12C7.50708 11.801 7.5861 11.6103 7.72675 11.4696C7.8674 11.329 8.05817 11.25 8.25708 11.25H11.7501V7.75696C11.7501 7.55805 11.8291 7.36728 11.9698 7.22663C12.1104 7.08598 12.3012 7.00696 12.5001 7.00696C12.699 7.00696 12.8898 7.08598 13.0304 7.22663C13.1711 7.36728 13.2501 7.55805 13.2501 7.75696V11.25H16.7431C16.942 11.25 17.1328 11.329 17.2734 11.4696C17.4141 11.6103 17.4931 11.801 17.4931 12C17.4931 12.1989 17.4141 12.3896 17.2734 12.5303C17.1328 12.6709 16.942 12.75 16.7431 12.75H13.2501V16.243C13.2501 16.4419 13.1711 16.6326 13.0304 16.7733C12.8898 16.9139 12.699 16.993 12.5001 16.993C12.3012 16.993 12.1104 16.9139 11.9698 16.7733C11.8291 16.6326 11.7501 16.4419 11.7501 16.243V12.75H8.25708C8.05817 12.75 7.8674 12.6709 7.72675 12.5303C7.5861 12.3896 7.50708 12.1989 7.50708 12Z" fill="url(#paint0_linear_9_1895)"/>
<path fill-rule="evenodd" clip-rule="evenodd" d="M7.81709 3.76904C10.9296 3.42399 14.0706 3.42399 17.1831 3.76904C19.0101 3.97304 20.4851 5.41204 20.6991 7.24904C21.0691 10.406 21.0691 13.595 20.6991 16.752C20.4841 18.589 19.0091 20.027 17.1831 20.232C14.0706 20.5771 10.9296 20.5771 7.81709 20.232C5.99009 20.027 4.51509 18.589 4.30109 16.752C3.93186 13.5951 3.93186 10.4059 4.30109 7.24904C4.51509 5.41204 5.99109 3.97304 7.81709 3.76904ZM17.0171 5.25904C14.0149 4.92627 10.9852 4.92627 7.98309 5.25904C7.42733 5.32069 6.90859 5.56791 6.51066 5.96075C6.11274 6.35359 5.85888 6.86912 5.79009 7.42404C5.43443 10.465 5.43443 13.5371 5.79009 16.578C5.85909 17.1328 6.11304 17.6481 6.51095 18.0407C6.90885 18.4333 7.42748 18.6804 7.98309 18.742C10.9601 19.074 14.0401 19.074 17.0171 18.742C17.5725 18.6802 18.0909 18.433 18.4886 18.0404C18.8863 17.6478 19.1401 17.1326 19.2091 16.578C19.5647 13.5371 19.5647 10.465 19.2091 7.42404C19.1399 6.86963 18.886 6.35468 18.4883 5.96226C18.0906 5.56983 17.5724 5.32281 17.0171 5.26104V5.25904Z" fill="url(#paint1_linear_9_1895)"/>
<defs>
<linearGradient id="paint0_linear_9_1895" x1="12.5001" y1="7.00696" x2="12.5001" y2="16.993" gradientUnits="userSpaceOnUse">
<stop stop-color="#E179CB"/>
<stop offset="1" stop-color="#D7DF4D"/>
</linearGradient>
<linearGradient id="paint1_linear_9_1895" x1="12.5004" y1="3.51025" x2="12.5004" y2="20.4908" gradientUnits="userSpaceOnUse">
<stop stop-color="#E179CB"/>
<stop offset="1" stop-color="#D7DF4D"/>
</linearGradient>
</defs>
</svg>
