<svg width="23" height="23" viewBox="0 0 23 23" fill="none" xmlns="http://www.w3.org/2000/svg">
<path d="M4.99917 10.0379C6.73917 13.4575 9.5425 16.2608 12.9621 18.0008L15.6204 15.3425C15.9587 15.0042 16.43 14.9075 16.8529 15.0404C18.2063 15.4875 19.6563 15.7292 21.1667 15.7292C21.4871 15.7292 21.7945 15.8565 22.0211 16.0831C22.2477 16.3097 22.375 16.617 22.375 16.9375V21.1667C22.375 21.4871 22.2477 21.7945 22.0211 22.0211C21.7945 22.2477 21.4871 22.375 21.1667 22.375C15.7187 22.375 10.4938 20.2108 6.64151 16.3585C2.7892 12.5062 0.625 7.28132 0.625 1.83333C0.625 1.51286 0.752306 1.20552 0.978913 0.978913C1.20552 0.752306 1.51286 0.625 1.83333 0.625H6.0625C6.38297 0.625 6.69031 0.752306 6.91692 0.978913C7.14353 1.20552 7.27083 1.51286 7.27083 1.83333C7.27083 3.34375 7.5125 4.79375 7.95958 6.14708C8.0925 6.57 7.99583 7.04125 7.6575 7.37958L4.99917 10.0379Z" fill="black"/>
</svg>
