<svg width="25" height="20" viewBox="0 0 25 20" fill="none" xmlns="http://www.w3.org/2000/svg">
<path fill-rule="evenodd" clip-rule="evenodd" d="M17.3339 1.78571H24.1071L25 2.67857V18.75L24.1071 19.6429H0.892857L0 18.75V2.67857L0.892857 1.78571H7.66607L9.18929 0.260714L9.82143 0H15.1786L15.8107 0.260714L17.3339 1.78571ZM1.78571 17.8571H23.2143V3.57143H16.9643L16.3321 3.31071L14.8089 1.78571H10.1911L8.66786 3.31071L8.03571 3.57143H1.78571V17.8571ZM4.46429 5.35714C4.22749 5.35714 4.00038 5.45121 3.83294 5.61866C3.6655 5.7861 3.57143 6.0132 3.57143 6.25C3.57143 6.4868 3.6655 6.7139 3.83294 6.88135C4.00038 7.04879 4.22749 7.14286 4.46429 7.14286C4.70109 7.14286 4.92819 7.04879 5.09563 6.88135C5.26307 6.7139 5.35714 6.4868 5.35714 6.25C5.35714 6.0132 5.26307 5.7861 5.09563 5.61866C4.92819 5.45121 4.70109 5.35714 4.46429 5.35714ZM12.5 7.14286C13.4472 7.14286 14.3556 7.51913 15.0254 8.1889C15.6952 8.85868 16.0714 9.76708 16.0714 10.7143C16.0714 11.6615 15.6952 12.5699 15.0254 13.2397C14.3556 13.9094 13.4472 14.2857 12.5 14.2857C11.5528 14.2857 10.6444 13.9094 9.97462 13.2397C9.30485 12.5699 8.92857 11.6615 8.92857 10.7143C8.92857 9.76708 9.30485 8.85868 9.97462 8.1889C10.6444 7.51913 11.5528 7.14286 12.5 7.14286ZM12.5 5.35714C11.0792 5.35714 9.71659 5.92156 8.71193 6.92621C7.70727 7.93087 7.14286 9.29348 7.14286 10.7143C7.14286 12.1351 7.70727 13.4977 8.71193 14.5024C9.71659 15.507 11.0792 16.0714 12.5 16.0714C13.9208 16.0714 15.2834 15.507 16.2881 14.5024C17.2927 13.4977 17.8571 12.1351 17.8571 10.7143C17.8571 9.29348 17.2927 7.93087 16.2881 6.92621C15.2834 5.92156 13.9208 5.35714 12.5 5.35714Z" fill="#0A0A0A" fill-opacity="0.5"/>
</svg>
