<svg width="29" height="29" viewBox="0 0 29 29" fill="none" xmlns="http://www.w3.org/2000/svg">
<path d="M1.8125 6.34375C1.8125 5.14199 2.2899 3.98945 3.13967 3.13967C3.98945 2.2899 5.14199 1.8125 6.34375 1.8125H13.5938C14.7955 1.8125 15.9481 2.2899 16.7978 3.13967C17.6476 3.98945 18.125 5.14199 18.125 6.34375V7.25H16.3125V6.34375C16.3125 5.62269 16.0261 4.93117 15.5162 4.4213C15.0063 3.91144 14.3148 3.625 13.5938 3.625H6.34375C5.62269 3.625 4.93117 3.91144 4.4213 4.4213C3.91144 4.93117 3.625 5.62269 3.625 6.34375V13.5938C3.625 14.3148 3.91144 15.0063 4.4213 15.5162C4.93117 16.0261 5.62269 16.3125 6.34375 16.3125H16.4666C16.6803 15.7078 17.101 15.1982 17.6542 14.8737C18.2074 14.5492 18.8575 14.4307 19.4896 14.5392C20.1217 14.6476 20.6951 14.976 21.1085 15.4664C21.5218 15.9567 21.7486 16.5774 21.7486 17.2188C21.7486 17.8601 21.5218 18.4808 21.1085 18.9711C20.6951 19.4615 20.1217 19.7899 19.4896 19.8983C18.8575 20.0068 18.2074 19.8883 17.6542 19.5638C17.101 19.2393 16.6803 18.7297 16.4666 18.125H6.34375C5.14199 18.125 3.98945 17.6476 3.13967 16.7978C2.2899 15.9481 1.8125 14.7955 1.8125 13.5938V6.34375ZM10.875 19.9375V20.8438C10.875 22.0455 11.3524 23.1981 12.2022 24.0478C13.0519 24.8976 14.2045 25.375 15.4062 25.375H22.6562C23.858 25.375 25.0106 24.8976 25.8603 24.0478C26.7101 23.1981 27.1875 22.0455 27.1875 20.8438V13.5938C27.1875 12.392 26.7101 11.2394 25.8603 10.3897C25.0106 9.5399 23.858 9.0625 22.6562 9.0625H12.5334C12.3197 8.45784 11.899 7.94822 11.3458 7.62371C10.7926 7.2992 10.1425 7.1807 9.51043 7.28915C8.87832 7.39761 8.30491 7.72603 7.89153 8.21637C7.47815 8.70671 7.25143 9.32741 7.25143 9.96875C7.25143 10.6101 7.47815 11.2308 7.89153 11.7211C8.30491 12.2115 8.87832 12.5399 9.51043 12.6483C10.1425 12.7568 10.7926 12.6383 11.3458 12.3138C11.899 11.9893 12.3197 11.4797 12.5334 10.875H22.6562C23.3773 10.875 24.0688 11.1614 24.5787 11.6713C25.0886 12.1812 25.375 12.8727 25.375 13.5938V20.8438C25.375 21.5648 25.0886 22.2563 24.5787 22.7662C24.0688 23.2761 23.3773 23.5625 22.6562 23.5625H15.4062C14.6852 23.5625 13.9937 23.2761 13.4838 22.7662C12.9739 22.2563 12.6875 21.5648 12.6875 20.8438V19.9375H10.875Z" fill="#4A4A4A"/>
</svg>
