<svg width="21" height="22" viewBox="0 0 21 22" fill="none" xmlns="http://www.w3.org/2000/svg">
<path d="M6.12177 18.6533L2.15848 19.9744L1.2098 20.2906L1.52602 19.3419L2.84722 15.3783C1.80803 13.6419 1.34942 11.6167 1.54195 9.59806C1.74207 7.49973 2.63437 5.52754 4.07837 3.99199C5.52236 2.45644 7.43604 1.44473 9.51813 1.11615C11.6002 0.787566 13.7324 1.16077 15.5792 2.177C17.4259 3.19324 18.8821 4.79478 19.7187 6.7295C20.5553 8.66422 20.7247 10.8222 20.2003 12.8638C19.6758 14.9054 18.4872 16.7145 16.8217 18.0064C15.1564 19.2982 13.1088 19.9995 11.0012 20L6.12177 18.6533ZM6.12177 18.6533C7.59414 19.5363 9.28059 20.0026 11.0004 20L6.12177 18.6533Z" stroke="black"/>
</svg>
