<svg width="18" height="18" viewBox="0 0 18 18" fill="none" xmlns="http://www.w3.org/2000/svg">
<path fill-rule="evenodd" clip-rule="evenodd" d="M1.59195 12.304C-0.656045 6.787 3.40296 0.75 9.35995 0.75H9.68095C10.7405 0.75 11.7896 0.958685 12.7684 1.36414C13.7473 1.7696 14.6367 2.36388 15.3859 3.11306C16.1351 3.86225 16.7294 4.75166 17.1348 5.73051C17.5403 6.70936 17.749 7.75849 17.749 8.818C17.749 11.2002 16.8026 13.4848 15.1182 15.1692C13.4337 16.8537 11.1491 17.8 8.76696 17.8H0.946955C0.791575 17.8001 0.639989 17.752 0.513142 17.6623C0.386294 17.5725 0.29045 17.4456 0.238851 17.2991C0.187252 17.1525 0.182448 16.9935 0.225101 16.8441C0.267754 16.6947 0.355759 16.5622 0.476955 16.465L2.44795 14.882C2.4901 14.8482 2.52018 14.8018 2.5337 14.7495C2.54722 14.6972 2.54345 14.642 2.52295 14.592L1.59195 12.304ZM9.35995 2.25C4.46695 2.25 1.13396 7.207 2.97995 11.738L3.91196 14.027C4.05396 14.3759 4.07957 14.7614 3.98498 15.126C3.89039 15.4907 3.68066 15.8151 3.38696 16.051L3.07796 16.3H8.76696C10.7513 16.3 12.6544 15.5117 14.0575 14.1086C15.4607 12.7054 16.249 10.8023 16.249 8.818C16.249 7.07606 15.557 5.40546 14.3252 4.17372C13.0935 2.94198 11.4229 2.25 9.68095 2.25H9.35995Z" fill="url(#paint0_linear_9_3103)"/>
<defs>
<linearGradient id="paint0_linear_9_3103" x1="8.97262" y1="0.75" x2="8.97262" y2="17.8" gradientUnits="userSpaceOnUse">
<stop stop-color="#E179CB"/>
<stop offset="1" stop-color="#D7DF4D"/>
</linearGradient>
</defs>
</svg>
