<svg width="26" height="26" viewBox="0 0 26 26" fill="none" xmlns="http://www.w3.org/2000/svg">
<path d="M23.6172 9.78385C23.4518 9.63961 23.2472 9.54778 23.0295 9.52004C22.8117 9.49229 22.5907 9.52987 22.3943 9.62801L17.7916 11.9198L13.9488 5.5368C13.85 5.37301 13.7106 5.23752 13.5441 5.14347C13.3775 5.04942 13.1895 5 12.9982 5C12.8069 5 12.6189 5.04942 12.4524 5.14347C12.2858 5.23752 12.1464 5.37301 12.0476 5.5368L8.2048 11.9225L3.6039 9.63076C3.40804 9.53349 3.18781 9.49624 2.97086 9.52367C2.7539 9.55111 2.54988 9.64201 2.38439 9.78497C2.21891 9.92793 2.09934 10.1166 2.04068 10.3273C1.98202 10.5379 1.98689 10.7612 2.05468 10.9691L5.44646 21.3608C5.48056 21.4652 5.53768 21.5606 5.61359 21.64C5.6895 21.7194 5.78226 21.7807 5.88504 21.8194C5.98781 21.8581 6.09797 21.8732 6.20738 21.8637C6.31679 21.8541 6.42265 21.8201 6.51716 21.7642C6.54008 21.7504 8.88407 20.4001 12.9982 20.4001C17.1123 20.4001 19.4563 21.7504 19.4774 21.7632C19.572 21.8197 19.678 21.8542 19.7877 21.8641C19.8974 21.874 20.0079 21.859 20.111 21.8204C20.2141 21.7817 20.3072 21.7203 20.3834 21.6408C20.4595 21.5612 20.5168 21.4655 20.5509 21.3608L23.9426 10.9719C24.0124 10.7639 24.0187 10.5399 23.9607 10.3283C23.9028 10.1168 23.7832 9.92725 23.6172 9.78385ZM19.4151 20.1095C18.315 19.6429 16.1223 18.9334 12.9982 18.9334C9.8741 18.9334 7.68137 19.6429 6.58133 20.1095L3.71299 11.3248L7.84454 13.3846C8.09462 13.508 8.38182 13.5332 8.64956 13.4553C8.9173 13.3774 9.14617 13.2021 9.29108 12.9639L12.9982 6.80184L16.7053 12.962C16.8504 13.1999 17.0791 13.3749 17.3465 13.4527C17.614 13.5306 17.9009 13.5056 18.151 13.3828L22.2834 11.3248L19.4151 20.1095ZM17.3864 17.1761C17.3565 17.3457 17.2678 17.4994 17.1359 17.6102C17.004 17.721 16.8373 17.7819 16.665 17.782C16.622 17.782 16.579 17.7783 16.5367 17.771C14.1942 17.3689 11.8004 17.3689 9.45792 17.771C9.26634 17.8048 9.06918 17.7611 8.90982 17.6496C8.75045 17.538 8.64194 17.3677 8.60815 17.1761C8.57435 16.9845 8.61805 16.7874 8.72962 16.628C8.84119 16.4686 9.0115 16.3601 9.20308 16.3263C11.7142 15.8949 14.2804 15.8949 16.7915 16.3263C16.9827 16.3599 17.1528 16.4679 17.2645 16.6267C17.3762 16.7855 17.4204 16.982 17.3873 17.1733L17.3864 17.1761Z" fill="#E179CB"/>
</svg>
