<svg width="29" height="29" viewBox="0 0 29 29" fill="none" xmlns="http://www.w3.org/2000/svg">
<path d="M19.333 13.2917V23.5625C19.333 24.0432 19.142 24.5042 18.8021 24.8441C18.4622 25.184 18.0012 25.375 17.5205 25.375C17.0398 25.375 16.5788 25.184 16.2389 24.8441C15.899 24.5042 15.708 24.0432 15.708 23.5625L15.708 14.5M15.708 15.1042L15.708 17.5208C15.708 17.7589 15.6611 17.9945 15.57 18.2144C15.479 18.4344 15.3454 18.6342 15.1771 18.8025C15.0088 18.9708 14.809 19.1043 14.5891 19.1954C14.3692 19.2865 14.1335 19.3333 13.8955 19.3333C13.6575 19.3333 13.4218 19.2865 13.2019 19.1954C12.982 19.1043 12.7822 18.9708 12.6139 18.8025C12.4456 18.6342 12.3121 18.4344 12.221 18.2144C12.1299 17.9945 12.083 17.7589 12.083 17.5208V14.5M12.083 16.3125C12.083 16.7932 11.892 17.2542 11.5521 17.5941C11.2122 17.934 10.7512 18.125 10.2705 18.125C9.7898 18.125 9.32879 17.934 8.98888 17.5941C8.64897 17.2542 8.45801 16.7932 8.45801 16.3125V14.5" stroke="white" stroke-width="2" stroke-linecap="round" stroke-linejoin="round"/>
<path d="M8.45836 15.1041C8.45836 15.5848 8.2674 16.0458 7.92749 16.3858C7.58758 16.7257 7.12656 16.9166 6.64586 16.9166C6.16515 16.9166 5.70414 16.7257 5.36423 16.3858C5.02432 16.0458 4.83336 15.5848 4.83336 15.1041V9.66663C4.83336 7.74381 5.59719 5.89974 6.95683 4.5401C8.31647 3.18046 10.1605 2.41663 12.0834 2.41663H14.5H14.2487C15.4494 2.41642 16.6313 2.71442 17.6884 3.28386C18.7454 3.85331 19.6445 4.67636 20.3049 5.67913C20.3841 5.79976 20.4631 5.92059 20.5417 6.04163C20.9187 6.62042 22.2418 8.92713 24.5123 12.963C24.7437 13.3744 24.8056 13.8598 24.6846 14.3161C24.5636 14.7724 24.2695 15.1635 23.8646 15.4062C23.4334 15.665 22.9281 15.7722 22.4289 15.7109C21.9298 15.6496 21.4654 15.4233 21.1096 15.0679L19.3334 13.2916" stroke="white" stroke-width="2" stroke-linecap="round" stroke-linejoin="round"/>
</svg>
