<svg width="21" height="21" viewBox="0 0 21 21" fill="none" xmlns="http://www.w3.org/2000/svg">
<g clip-path="url(#clip0_9_2771)">
<path d="M10.5 19.6875C8.06332 19.6875 5.72645 18.7195 4.00346 16.9965C2.28047 15.2736 1.3125 12.9367 1.3125 10.5C1.3125 8.06332 2.28047 5.72645 4.00346 4.00346C5.72645 2.28047 8.06332 1.3125 10.5 1.3125C12.9367 1.3125 15.2736 2.28047 16.9965 4.00346C18.7195 5.72645 19.6875 8.06332 19.6875 10.5C19.6875 12.9367 18.7195 15.2736 16.9965 16.9965C15.2736 18.7195 12.9367 19.6875 10.5 19.6875ZM10.5 21C13.2848 21 15.9555 19.8938 17.9246 17.9246C19.8938 15.9555 21 13.2848 21 10.5C21 7.71523 19.8938 5.04451 17.9246 3.07538C15.9555 1.10625 13.2848 0 10.5 0C7.71523 0 5.04451 1.10625 3.07538 3.07538C1.10625 5.04451 0 7.71523 0 10.5C0 13.2848 1.10625 15.9555 3.07538 17.9246C5.04451 19.8938 7.71523 21 10.5 21Z" fill="#0A0A0A" fill-opacity="0.5"/>
<path d="M16.184 12.4688C16.2992 12.6683 16.3599 12.8946 16.3599 13.125C16.3599 13.3554 16.2992 13.5817 16.184 13.7812C15.6082 14.7792 14.7796 15.6079 13.7817 16.1839C12.7838 16.7599 11.6518 17.063 10.4996 17.0625C9.34761 17.0627 8.21587 16.7596 7.21823 16.1836C6.22059 15.6076 5.39223 14.779 4.81647 13.7812C4.70133 13.5818 4.64068 13.3556 4.64063 13.1253C4.64057 12.8951 4.70109 12.6688 4.81613 12.4693C4.93117 12.2698 5.09666 12.1041 5.296 11.9888C5.49534 11.8736 5.7215 11.8127 5.95178 11.8125H15.0474C15.2778 11.8125 15.5041 11.8732 15.7036 11.9883C15.9032 12.1035 16.0688 12.2692 16.184 12.4688ZM9.18709 8.53125C9.18709 9.618 8.59909 8.53125 7.87459 8.53125C7.15009 8.53125 6.56209 9.618 6.56209 8.53125C6.56209 7.4445 7.15009 6.5625 7.87459 6.5625C8.59909 6.5625 9.18709 7.4445 9.18709 8.53125ZM14.4371 8.53125C14.4371 9.618 13.8491 8.53125 13.1246 8.53125C12.4001 8.53125 11.8121 9.618 11.8121 8.53125C11.8121 7.4445 12.4001 6.5625 13.1246 6.5625C13.8491 6.5625 14.4371 7.4445 14.4371 8.53125Z" fill="#0A0A0A" fill-opacity="0.5"/>
</g>
<defs>
<clipPath id="clip0_9_2771">
<rect width="21" height="21" fill="white"/>
</clipPath>
</defs>
</svg>
