<svg width="25" height="24" viewBox="0 0 25 24" fill="none" xmlns="http://www.w3.org/2000/svg">
<path d="M22.4688 7.15624H18.4948C18.539 7.11886 18.5843 7.08261 18.6274 7.04296C18.9714 6.7373 19.2487 6.36394 19.4419 5.94623C19.635 5.52852 19.7399 5.07545 19.75 4.61535C19.7649 4.11201 19.6767 3.61094 19.491 3.1429C19.3052 2.67486 19.0257 2.24973 18.6697 1.89361C18.3137 1.53749 17.8886 1.25789 17.4206 1.07198C16.9527 0.886065 16.4516 0.797764 15.9483 0.812495C15.488 0.822409 15.0347 0.927231 14.6168 1.1204C14.1989 1.31357 13.8253 1.59093 13.5195 1.93511C13.0964 2.4255 12.7524 2.97893 12.5 3.57542C12.2476 2.97893 11.9036 2.4255 11.4805 1.93511C11.1747 1.59093 10.8011 1.31357 10.3832 1.1204C9.96531 0.927231 9.51201 0.822409 9.05172 0.812495C8.54838 0.797764 8.04733 0.886065 7.57935 1.07198C7.11137 1.25789 6.68632 1.53749 6.33031 1.89361C5.97429 2.24973 5.69482 2.67486 5.50904 3.1429C5.32327 3.61094 5.23512 4.11201 5.25 4.61535C5.26007 5.07545 5.36497 5.52852 5.55813 5.94623C5.75129 6.36394 6.02857 6.7373 6.37262 7.04296C6.41566 7.08035 6.46098 7.1166 6.50516 7.15624H2.53125C2.05055 7.15624 1.58953 7.3472 1.24962 7.68711C0.909709 8.02702 0.71875 8.48804 0.71875 8.96874V12.5937C0.71875 13.0744 0.909709 13.5355 1.24962 13.8754C1.58953 14.2153 2.05055 14.4062 2.53125 14.4062V21.6562C2.53125 22.1369 2.72221 22.598 3.06212 22.9379C3.40203 23.2778 3.86305 23.4687 4.34375 23.4687H20.6562C21.137 23.4687 21.598 23.2778 21.9379 22.9379C22.2778 22.598 22.4688 22.1369 22.4688 21.6562V14.4062C22.9495 14.4062 23.4105 14.2153 23.7504 13.8754C24.0903 13.5355 24.2812 13.0744 24.2812 12.5937V8.96874C24.2812 8.48804 24.0903 8.02702 23.7504 7.68711C23.4105 7.3472 22.9495 7.15624 22.4688 7.15624ZM14.8789 3.13589C15.0224 2.97744 15.1971 2.85036 15.392 2.76263C15.587 2.67491 15.798 2.62843 16.0117 2.62613H16.0672C16.3178 2.62769 16.5655 2.67925 16.7958 2.77778C17.0262 2.87631 17.2346 3.01982 17.4088 3.19991C17.5829 3.38001 17.7194 3.59306 17.8102 3.82657C17.901 4.06009 17.9443 4.30938 17.9375 4.55984C17.9352 4.7736 17.8887 4.98457 17.801 5.17951C17.7133 5.37446 17.5862 5.54916 17.4277 5.69265C16.3527 6.64421 14.5685 6.97953 13.4629 7.09734C13.5988 5.89769 13.9727 4.15429 14.8789 3.13589ZM7.61871 3.17667C7.96982 2.8256 8.44533 2.62734 8.94184 2.62499H8.99734C9.2111 2.6273 9.42208 2.67377 9.61702 2.7615C9.81196 2.84922 9.98667 2.9763 10.1302 3.13476C11.0806 4.20867 11.4159 5.98945 11.5337 7.09054C10.4326 6.97726 8.65184 6.63742 7.57793 5.68699C7.41947 5.54349 7.29239 5.36879 7.20467 5.17385C7.11694 4.97891 7.07047 4.76793 7.06816 4.55417C7.06114 4.29956 7.10591 4.04617 7.19977 3.80938C7.29363 3.57259 7.43462 3.35733 7.61418 3.17667H7.61871ZM2.53125 8.96874H11.5938V12.5937H2.53125V8.96874ZM4.34375 14.4062H11.5938V21.6562H4.34375V14.4062ZM20.6562 21.6562H13.4062V14.4062H20.6562V21.6562ZM22.4688 12.5937H13.4062V8.96874H22.4688V12.5937Z" fill="white"/>
</svg>
