<svg width="29" height="27" viewBox="0 0 29 27" fill="none" xmlns="http://www.w3.org/2000/svg">
<path d="M20.9732 0C18.2998 0 15.9591 1.24082 14.5 3.33819C13.0409 1.24082 10.7002 0 8.02679 0C5.89869 0.00258886 3.85844 0.916165 2.35364 2.5403C0.848846 4.16443 0.00239863 6.36649 0 8.66336C0 18.4446 13.4371 26.3618 14.0093 26.6887C14.1602 26.7763 14.3287 26.8221 14.5 26.8221C14.6713 26.8221 14.8398 26.7763 14.9907 26.6887C15.5629 26.3618 29 18.4446 29 8.66336C28.9976 6.36649 28.1512 4.16443 26.6464 2.5403C25.1416 0.916165 23.1013 0.00258886 20.9732 0ZM14.5 24.4251C12.136 22.9383 2.07143 16.1655 2.07143 8.66336C2.07348 6.95932 2.70158 5.32571 3.81798 4.12077C4.93438 2.91583 6.44796 2.23792 8.02679 2.23571C10.5449 2.23571 12.659 3.68332 13.542 6.00846C13.62 6.21348 13.7527 6.38884 13.9233 6.51226C14.0939 6.63567 14.2946 6.70156 14.5 6.70156C14.7054 6.70156 14.9061 6.63567 15.0767 6.51226C15.2473 6.38884 15.38 6.21348 15.458 6.00846C16.341 3.67913 18.4551 2.23571 20.9732 2.23571C22.552 2.23792 24.0656 2.91583 25.182 4.12077C26.2984 5.32571 26.9265 6.95932 26.9286 8.66336C26.9286 16.1544 16.8614 22.9369 14.5 24.4251Z" fill="white"/>
</svg>
