<svg width="20" height="15" viewBox="0 0 20 15" fill="none" xmlns="http://www.w3.org/2000/svg">
<path d="M3.22351 0.700841C3.33221 0.595357 3.47835 0.537364 3.62979 0.539614C3.78124 0.541864 3.9256 0.604174 4.03111 0.712841C4.14647 0.833154 4.20978 0.994083 4.20731 1.16075C4.20484 1.32742 4.13679 1.4864 4.01791 1.60324C2.46615 3.17328 1.59713 5.29256 1.59991 7.50004C1.59991 9.88804 2.59591 12.0432 4.19671 13.572C4.25852 13.6292 4.30834 13.698 4.34324 13.7746C4.37815 13.8512 4.39745 13.9339 4.40002 14.0181C4.40259 14.1022 4.38838 14.186 4.35821 14.2645C4.32804 14.3431 4.28252 14.4149 4.22431 14.4756C4.12108 14.5823 3.98033 14.6444 3.83198 14.6489C3.68363 14.6534 3.53939 14.5998 3.42991 14.4996C2.47216 13.6028 1.70898 12.5187 1.18775 11.3146C0.666511 10.1105 0.398349 8.81212 0.399909 7.50004C0.399909 4.84324 1.47991 2.43844 3.22351 0.700841ZM15.9819 1.60324C15.8632 1.48624 15.7954 1.32717 15.7931 1.1605C15.7909 0.993837 15.8544 0.832998 15.9699 0.712841C16.0754 0.604539 16.2195 0.542462 16.3706 0.540212C16.5218 0.537963 16.6677 0.595725 16.7763 0.700841C17.6725 1.59162 18.3835 2.65107 18.8681 3.81805C19.3527 4.98503 19.6014 6.23643 19.5999 7.50004C19.5999 10.26 18.4359 12.7488 16.5699 14.4996C16.4604 14.5998 16.3162 14.6534 16.1678 14.6489C16.0195 14.6444 15.8787 14.5823 15.7755 14.4756C15.7175 14.4149 15.6721 14.3432 15.6421 14.2647C15.612 14.1863 15.5978 14.1026 15.6004 14.0187C15.603 13.9347 15.6222 13.8521 15.657 13.7756C15.6918 13.6991 15.7415 13.6303 15.8031 13.5732C16.625 12.7898 17.279 11.8474 17.7254 10.8034C18.1718 9.75939 18.4013 8.6355 18.3999 7.50004C18.4027 5.29219 17.5337 3.17372 15.9819 1.60324ZM5.35831 2.80804C5.46525 2.7062 5.60826 2.65101 5.75589 2.65461C5.90351 2.65821 6.04367 2.72031 6.14551 2.82724C6.39511 3.07684 6.36991 3.48724 6.12391 3.73924C5.14468 4.74598 4.59776 6.09561 4.59991 7.50004C4.59991 9.04804 5.25151 10.4448 6.29671 11.43C6.56071 11.6784 6.59671 12.1032 6.33871 12.3612C6.23981 12.4641 6.10516 12.5249 5.96263 12.5312C5.8201 12.5374 5.68063 12.4886 5.57311 12.3948C4.8881 11.7768 4.34065 11.0217 3.96627 10.1784C3.59188 9.33517 3.39893 8.42266 3.39991 7.50004C3.39859 6.62712 3.57108 5.76268 3.90731 4.95712C4.24355 4.15155 4.7368 3.42099 5.35831 2.80804ZM13.8759 3.73924C13.6299 3.48724 13.6047 3.07684 13.8543 2.82724C13.9562 2.72031 14.0963 2.65821 14.2439 2.65461C14.3916 2.65101 14.5346 2.7062 14.6415 2.80804C15.2629 3.42112 15.756 4.1517 16.0922 4.95723C16.4285 5.76277 16.601 6.62715 16.5999 7.50004C16.6012 8.42277 16.4085 9.33546 16.0343 10.1789C15.6602 11.0224 15.1129 11.7777 14.4279 12.396C14.3199 12.4902 14.1798 12.539 14.0367 12.5323C13.8936 12.5256 13.7586 12.4639 13.6599 12.36C13.4031 12.1032 13.4391 11.6784 13.7031 11.43C14.2396 10.9258 14.667 10.3169 14.9588 9.64091C15.2507 8.96495 15.4008 8.23631 15.3999 7.50004C15.4021 6.09561 14.8551 4.74598 13.8759 3.73924ZM9.99991 6.00004C9.60209 6.00004 9.22056 6.15808 8.93925 6.43938C8.65795 6.72068 8.49991 7.10221 8.49991 7.50004C8.49991 7.89786 8.65795 8.2794 8.93925 8.5607C9.22056 8.842 9.60209 9.00004 9.99991 9.00004C10.3977 9.00004 10.7793 8.842 11.0606 8.5607C11.3419 8.2794 11.4999 7.89786 11.4999 7.50004C11.4999 7.10221 11.3419 6.72068 11.0606 6.43938C10.7793 6.15808 10.3977 6.00004 9.99991 6.00004Z" fill="white"/>
</svg>
