<svg width="35" height="32" viewBox="0 0 35 32" fill="none" xmlns="http://www.w3.org/2000/svg">
<path d="M17.3036 11.2C15.9268 11.2 14.6064 11.7057 13.6329 12.6059C12.6594 13.5061 12.1125 14.727 12.1125 16C12.1125 17.273 12.6594 18.4939 13.6329 19.3941C14.6064 20.2943 15.9268 20.8 17.3036 20.8C18.6803 20.8 20.0007 20.2943 20.9742 19.3941C21.9477 18.4939 22.4946 17.273 22.4946 16C22.4946 14.727 21.9477 13.5061 20.9742 12.6059C20.0007 11.7057 18.6803 11.2 17.3036 11.2ZM17.3036 8C19.5982 8 21.7988 8.84286 23.4213 10.3431C25.0438 11.8434 25.9554 13.8783 25.9554 16C25.9554 18.1217 25.0438 20.1566 23.4213 21.6569C21.7988 23.1571 19.5982 24 17.3036 24C15.009 24 12.8084 23.1571 11.1858 21.6569C9.56331 20.1566 8.65179 18.1217 8.65179 16C8.65179 13.8783 9.56331 11.8434 11.1858 10.3431C12.8084 8.84286 15.009 8 17.3036 8ZM28.5509 7.6C28.5509 8.13043 28.323 8.63914 27.9174 9.01421C27.5118 9.38929 26.9616 9.6 26.3879 9.6C25.8143 9.6 25.2641 9.38929 24.8585 9.01421C24.4529 8.63914 24.225 8.13043 24.225 7.6C24.225 7.06957 24.4529 6.56086 24.8585 6.18579C25.2641 5.81071 25.8143 5.6 26.3879 5.6C26.9616 5.6 27.5118 5.81071 27.9174 6.18579C28.323 6.56086 28.5509 7.06957 28.5509 7.6ZM17.3036 3.2C13.0227 3.2 12.3236 3.2112 10.332 3.2928C8.97536 3.352 8.06519 3.52 7.22078 3.824C6.46981 4.0928 5.9282 4.4144 5.35199 4.9488C4.8104 5.43264 4.39399 6.02333 4.13382 6.6768C3.80506 7.4608 3.62337 8.3008 3.56108 9.5536C3.4711 11.32 3.46071 11.9376 3.46071 16C3.46071 19.9584 3.47283 20.6048 3.56108 22.4464C3.6251 23.6992 3.80679 24.5424 4.13382 25.3216C4.42798 26.0176 4.77406 26.5184 5.34853 27.0496C5.93166 27.5872 6.47327 27.9088 7.21732 28.1744C8.07212 28.48 8.98228 28.6496 10.332 28.7072C12.2423 28.7904 12.9102 28.8 17.3036 28.8C21.5845 28.8 22.2835 28.7888 24.2752 28.7072C25.6283 28.648 26.5402 28.48 27.3846 28.1776C28.1339 27.9072 28.6789 27.5856 29.2534 27.0544C29.8365 26.5152 30.1844 26.0144 30.4716 25.3264C30.8004 24.5376 30.9838 23.6944 31.0461 22.4464C31.136 20.68 31.1464 20.0624 31.1464 16C31.1464 12.0416 31.1343 11.3952 31.0461 9.5536C30.982 8.3024 30.8004 7.4576 30.4716 6.6768C30.2108 6.024 29.7951 5.43354 29.2551 4.9488C28.7321 4.44775 28.0932 4.06267 27.3864 3.8224C26.5385 3.5184 25.6283 3.3504 24.2752 3.2928C22.3649 3.2096 21.6969 3.2 17.3036 3.2ZM17.3036 0C22.005 0 22.5915 0.0159999 24.4361 0.0959999C26.2789 0.176 27.5334 0.4432 28.6374 0.84C29.7794 1.2464 30.7415 1.7968 31.7036 2.6848C32.5835 3.48463 33.2643 4.45214 33.6987 5.52C34.1261 6.5392 34.4168 7.7008 34.5033 9.4048C34.5846 11.1104 34.6071 11.6528 34.6071 16C34.6071 20.3472 34.5898 20.8896 34.5033 22.5952C34.4168 24.2992 34.1261 25.4592 33.6987 26.48C33.2656 27.5484 32.5846 28.5162 31.7036 29.3152C30.8384 30.1285 29.7921 30.758 28.6374 31.16C27.5352 31.5552 26.2789 31.824 24.4361 31.904C22.5915 31.9792 22.005 32 17.3036 32C12.6022 32 12.0156 31.984 10.171 31.904C8.32821 31.824 7.0737 31.5552 5.96973 31.16C4.81442 30.7592 3.7679 30.1295 2.90354 29.3152C2.02349 28.5155 1.34264 27.548 0.908438 26.48C0.479309 25.4608 0.190339 24.2992 0.103821 22.5952C0.0224945 20.8896 0 20.3472 0 16C0 11.6528 0.0173035 11.1104 0.103821 9.4048C0.190339 7.6992 0.479309 6.5408 0.908438 5.52C1.34144 4.45149 2.02245 3.48371 2.90354 2.6848C3.76815 1.87077 4.81459 1.24117 5.96973 0.84C7.0737 0.4432 8.32648 0.176 10.171 0.0959999C12.0156 0.0207999 12.6022 0 17.3036 0Z" fill="white"/>
</svg>
