<svg width="22" height="13" viewBox="0 0 22 13" fill="none" xmlns="http://www.w3.org/2000/svg">
<path d="M11.917 7.50011C11.6623 8.98018 10.8619 10.311 9.67392 11.2298C8.48593 12.1486 6.99666 12.5886 5.50009 12.463C4.00352 12.3374 2.60841 11.6554 1.59016 10.5514C0.57191 9.4475 0.00452288 8.00194 2.5002e-06 6.50011C-0.00137098 4.99472 0.563193 3.54382 1.58168 2.43527C2.60017 1.32672 3.99816 0.641535 5.49828 0.515654C6.9984 0.389774 8.49103 0.832399 9.68002 1.75571C10.869 2.67902 11.6675 4.01555 11.917 5.50011H22V7.50011H20V11.5001H18V7.50011H16V11.5001H14V7.50011H11.917ZM6 10.5001C7.06087 10.5001 8.07828 10.0787 8.82843 9.32854C9.57858 8.5784 10 7.56098 10 6.50011C10 5.43925 9.57858 4.42183 8.82843 3.67169C8.07828 2.92154 7.06087 2.50012 6 2.50012C4.93914 2.50012 3.92172 2.92154 3.17158 3.67169C2.42143 4.42183 2 5.43925 2 6.50011C2 7.56098 2.42143 8.5784 3.17158 9.32854C3.92172 10.0787 4.93914 10.5001 6 10.5001Z" fill="black"/>
<path d="M11.917 7.50011C11.6623 8.98018 10.8619 10.311 9.67392 11.2298C8.48593 12.1486 6.99666 12.5886 5.50009 12.463C4.00352 12.3374 2.60841 11.6554 1.59016 10.5514C0.57191 9.4475 0.00452288 8.00194 2.5002e-06 6.50011C-0.00137098 4.99472 0.563193 3.54382 1.58168 2.43527C2.60017 1.32672 3.99816 0.641535 5.49828 0.515654C6.9984 0.389774 8.49103 0.832399 9.68002 1.75571C10.869 2.67902 11.6675 4.01555 11.917 5.50011H22V7.50011H20V11.5001H18V7.50011H16V11.5001H14V7.50011H11.917ZM6 10.5001C7.06087 10.5001 8.07828 10.0787 8.82843 9.32854C9.57858 8.5784 10 7.56098 10 6.50011C10 5.43925 9.57858 4.42183 8.82843 3.67169C8.07828 2.92154 7.06087 2.50012 6 2.50012C4.93914 2.50012 3.92172 2.92154 3.17158 3.67169C2.42143 4.42183 2 5.43925 2 6.50011C2 7.56098 2.42143 8.5784 3.17158 9.32854C3.92172 10.0787 4.93914 10.5001 6 10.5001Z" fill="white" fill-opacity="0.45"/>
</svg>
