<svg width="36" height="29" viewBox="0 0 36 29" fill="none" xmlns="http://www.w3.org/2000/svg">
<path d="M35.4682 3.40398C34.1398 3.9745 32.731 4.34919 31.2885 4.51564C32.809 3.63279 33.9469 2.24336 34.4903 0.606257C33.0634 1.43071 31.4991 2.0085 29.8686 2.32105C28.7734 1.18334 27.3218 0.428803 25.7393 0.174746C24.1569 -0.0793106 22.5323 0.181345 21.1182 0.916191C19.7041 1.65104 18.5796 2.8189 17.9196 4.23822C17.2597 5.65754 17.1012 7.2488 17.4688 8.76461C14.5752 8.6238 11.7444 7.89373 9.16033 6.62182C6.57622 5.3499 4.2965 3.56456 2.46919 1.38171C1.82238 2.46034 1.48248 3.6865 1.4843 4.93462C1.4843 7.38433 2.76848 9.54851 4.72086 10.8156C3.56546 10.7803 2.43549 10.4773 1.42513 9.93201V10.0199C1.42548 11.6514 2.00697 13.2325 3.07099 14.4953C4.13502 15.7581 5.61611 16.6247 7.26313 16.9483C6.19057 17.2305 5.06593 17.2721 3.97436 17.0699C4.43874 18.4743 5.34383 19.7024 6.56291 20.5825C7.78199 21.4625 9.25402 21.9504 10.7729 21.9778C9.26333 23.1288 7.5349 23.9798 5.6864 24.4818C3.83791 24.9839 1.90562 25.1273 0 24.9039C3.32652 26.981 7.19892 28.0837 11.154 28.0801C24.5405 28.0801 31.861 17.3132 31.861 7.97563C31.861 7.67153 31.8523 7.36405 31.8384 7.06333C33.2633 6.06346 34.4931 4.82484 35.47 3.40567L35.4682 3.40398Z" fill="white"/>
</svg>
