<svg width="29" height="29" viewBox="0 0 29 29" fill="none" xmlns="http://www.w3.org/2000/svg">
<path d="M9.66699 15.7083V5.4375C9.66699 4.9568 9.85795 4.49578 10.1979 4.15587C10.5378 3.81596 10.9988 3.625 11.4795 3.625C11.9602 3.625 12.4212 3.81596 12.7611 4.15587C13.101 4.49578 13.292 4.9568 13.292 5.4375V14.5M13.292 13.8958V11.4792C13.292 11.2411 13.3389 11.0055 13.43 10.7856C13.521 10.5657 13.6546 10.3658 13.8229 10.1975C13.9912 10.0292 14.191 9.89572 14.4109 9.80464C14.6308 9.71355 14.8665 9.66667 15.1045 9.66667C15.3425 9.66667 15.5782 9.71355 15.7981 9.80464C16.018 9.89572 16.2178 10.0292 16.3861 10.1975C16.5544 10.3658 16.6879 10.5657 16.779 10.7856C16.8701 11.0055 16.917 11.2411 16.917 11.4792V14.5M16.917 12.6875C16.917 12.2068 17.108 11.7458 17.4479 11.4059C17.7878 11.066 18.2488 10.875 18.7295 10.875C19.2102 10.875 19.6712 11.066 20.0111 11.4059C20.351 11.7458 20.542 12.2068 20.542 12.6875V14.5" stroke="white" stroke-width="2" stroke-linecap="round" stroke-linejoin="round"/>
<path d="M20.5416 13.8959C20.5416 13.4152 20.7326 12.9542 21.0725 12.6142C21.4124 12.2743 21.8734 12.0834 22.3541 12.0834C22.8349 12.0834 23.2959 12.2743 23.6358 12.6142C23.9757 12.9542 24.1666 13.4152 24.1666 13.8959V19.3334C24.1666 21.2562 23.4028 23.1003 22.0432 24.4599C20.6835 25.8195 18.8395 26.5834 16.9166 26.5834H14.5H14.7513C13.5506 26.5836 12.3687 26.2856 11.3117 25.7161C10.2546 25.1467 9.35552 24.3236 8.69515 23.3209C8.61589 23.2002 8.53695 23.0794 8.45831 22.9584C8.08131 22.3796 6.75819 20.0729 4.48773 16.037C4.25627 15.6256 4.19444 15.1402 4.3154 14.6839C4.43635 14.2276 4.73054 13.8365 5.13539 13.5938C5.56662 13.335 6.07194 13.2278 6.57109 13.2891C7.07023 13.3504 7.53459 13.5767 7.8904 13.9321L9.66665 15.7084" stroke="white" stroke-width="2" stroke-linecap="round" stroke-linejoin="round"/>
</svg>
