<svg width="35" height="21" viewBox="0 0 35 21" fill="none" xmlns="http://www.w3.org/2000/svg">
<path d="M5.83366 1.1665H19.8337C21.0713 1.1665 22.2583 1.65817 23.1335 2.53334C24.0087 3.40851 24.5003 4.59549 24.5003 5.83317V15.1665C24.5003 16.4042 24.0087 17.5912 23.1335 18.4663C22.2583 19.3415 21.0713 19.8332 19.8337 19.8332H5.83366C4.59598 19.8332 3.409 19.3415 2.53383 18.4663C1.65866 17.5912 1.16699 16.4042 1.16699 15.1665V5.83317C1.16699 4.59549 1.65866 3.40851 2.53383 2.53334C3.409 1.65817 4.59598 1.1665 5.83366 1.1665ZM24.5003 8.16651L30.1003 3.9665C30.447 3.70651 30.8592 3.54818 31.2908 3.50927C31.7224 3.47035 32.1563 3.55238 32.5438 3.74617C32.9314 3.93996 33.2574 4.23785 33.4852 4.60647C33.713 4.97508 33.8337 5.39984 33.8337 5.83317V15.1665C33.8337 15.5998 33.713 16.0246 33.4852 16.3932C33.2574 16.7618 32.9314 17.0597 32.5438 17.2535C32.1563 17.4473 31.7224 17.5293 31.2908 17.4904C30.8592 17.4515 30.447 17.2932 30.1003 17.0332L24.5003 12.8332V8.16651Z" stroke="black" stroke-width="2" stroke-linecap="round" stroke-linejoin="round"/>
</svg>
