<svg width="15" height="22" viewBox="0 0 15 22" fill="none" xmlns="http://www.w3.org/2000/svg">
<path d="M12.5 9.375V11.7188C12.5 13.1692 11.9238 14.5602 10.8982 15.5857C9.87265 16.6113 8.48165 17.1875 7.03125 17.1875C5.58085 17.1875 4.18985 16.6113 3.16426 15.5857C2.13867 14.5602 1.5625 13.1692 1.5625 11.7188V9.375H0V11.7188C0.000820681 13.4477 0.638636 15.1157 1.79158 16.4042C2.94452 17.6926 4.53175 18.511 6.25 18.7031V20.3125H3.125V21.875H10.9375V20.3125H7.8125V18.7031C9.53075 18.511 11.118 17.6926 12.2709 16.4042C13.4239 15.1157 14.0617 13.4477 14.0625 11.7188V9.375H12.5Z" fill="white"/>
<path d="M7.03125 15.625C8.06725 15.625 9.06082 15.2134 9.79339 14.4809C10.5259 13.7483 10.9375 12.7548 10.9375 11.7188V3.90625C10.9375 2.87025 10.5259 1.87668 9.79339 1.14411C9.06082 0.41155 8.06725 0 7.03125 0C5.99525 0 5.00168 0.41155 4.26911 1.14411C3.53655 1.87668 3.125 2.87025 3.125 3.90625V11.7188C3.125 12.7548 3.53655 13.7483 4.26911 14.4809C5.00168 15.2134 5.99525 15.625 7.03125 15.625Z" fill="white"/>
</svg>
